<svg xmlns="http://www.w3.org/2000/svg" viewBox="0 0 761 750">
<defs><linearGradient id="bg" x1="0" y1="0" x2="1" y2="1"><stop stop-color="#fff8ed"/><stop offset=".55" stop-color="#ffb52e"/><stop offset="1" stop-color="#ff8b00"/></linearGradient><linearGradient id="desk" x1="0" y1="0" x2="0" y2="1"><stop stop-color="#fff"/><stop offset="1" stop-color="#f0ece4"/></linearGradient></defs>
<rect width="761" height="750" rx="42" fill="url(#bg)"/><circle cx="640" cy="130" r="110" fill="#fff" opacity=".13"/><path d="M40 530 Q380 450 720 530 V750 H40Z" fill="url(#desk)"/>
<g font-family="Arial,sans-serif" font-weight="800" text-anchor="middle">
<g transform="rotate(-4 150 155)"><rect x="90" y="105" width="125" height="72" rx="8" fill="#ffe28c" stroke="#f1c65e"/><text x="152" y="148" font-size="24" fill="#17120c">PLAN</text></g>
<g transform="rotate(3 380 140)"><rect x="300" y="92" width="160" height="78" rx="8" fill="#ffe28c" stroke="#f1c65e"/><text x="380" y="140" font-size="24" fill="#17120c">SCRIPT</text></g>
<g transform="rotate(-3 585 195)"><rect x="515" y="155" width="140" height="78" rx="8" fill="#ffe28c" stroke="#f1c65e"/><text x="585" y="203" font-size="24" fill="#17120c">SHOOT</text></g>
<g transform="rotate(4 650 330)"><rect x="585" y="290" width="130" height="78" rx="8" fill="#ffe28c" stroke="#f1c65e"/><text x="650" y="338" font-size="24" fill="#17120c">EDIT</text></g></g>
<g transform="rotate(-7 355 505)"><rect x="165" y="325" width="380" height="245" rx="18" fill="#161616"/><rect x="182" y="342" width="346" height="195" rx="9" fill="#222"/><rect x="195" y="355" width="150" height="82" rx="5" fill="#e9a33a"/><rect x="355" y="355" width="160" height="82" rx="5" fill="#d88a29"/><rect x="195" y="454" width="320" height="10" rx="5" fill="#c84a9b"/><rect x="195" y="470" width="270" height="10" rx="5" fill="#32b7a7"/><rect x="195" y="486" width="300" height="10" rx="5" fill="#8f65e8"/><path d="M140 570h430l-35 22H175z" fill="#777"/></g>
<g transform="rotate(-7 90 635)"><rect x="30" y="560" width="160" height="150" rx="6" fill="#fffdf7"/><text x="45" y="595" font-family="Arial" font-size="15" fill="#333" text-anchor="start">☑ Ideas</text><text x="45" y="625" font-family="Arial" font-size="15" fill="#333" text-anchor="start">☑ Shoot</text><text x="45" y="655" font-family="Arial" font-size="15" fill="#333" text-anchor="start">☑ Edit</text><text x="45" y="685" font-family="Arial" font-size="15" fill="#333" text-anchor="start">☑ Post</text></g>
<g transform="rotate(9 625 600)"><rect x="560" y="500" width="135" height="120" rx="15" fill="#171717"/><circle cx="595" cy="535" r="24" fill="#333"/><circle cx="660" cy="535" r="24" fill="#333"/><rect x="590" y="570" width="80" height="25" rx="8" fill="#333"/><circle cx="628" cy="560" r="42" fill="#111" stroke="#555" stroke-width="5"/><circle cx="628" cy="560" r="27" fill="#1c1c1c"/></g>
<g transform="rotate(-10 470 650)"><rect x="395" y="570" width="110" height="150" rx="16" fill="#111"/><rect x="405" y="585" width="90" height="120" rx="10" fill="#f7a51d"/><text x="450" y="635" font-family="Arial" font-size="13" font-weight="800" text-anchor="middle" fill="#111">MORE</text><text x="450" y="652" font-family="Arial" font-size="13" font-weight="800" text-anchor="middle" fill="#111">CONTENT.</text></g>
<rect x="570" y="665" width="120" height="55" rx="12" fill="#ff8b00"/><text x="630" y="690" font-family="Arial" font-size="12" font-weight="800" text-anchor="middle">CREATE</text><text x="630" y="706" font-family="Arial" font-size="12" font-weight="800" text-anchor="middle">CONSISTENTLY.</text>
<path d="M665 55l38 20-25 12 28 17-44 4 12-17-26-15z" fill="#d87800" opacity=".25"/></svg>